# xmcd CD database file
#
# Track frame offsets:
#	150
#	18012
#	35525
#	53150
#	70375
#	88237
#	107475
#	124512
#	141587
#	159675
#
# Disc length: 2303 seconds
#
# Revision: 3
# Processed by: cddbd v1.5.2PL0 Copyright (c) Steve Scherf et al.
# Submitted via: CDex 1.70beta2
#
DISCID=8608fd0a
DTITLE=許志安 - 飛得起
DYEAR=1998
DGENRE=Pop
TTITLE0=一家一減你
TTITLE1=二人行一日後
TTITLE2=請你在餘生等我
TTITLE3=想怎麼樣
TTITLE4=生銹
TTITLE5=眼緣
TTITLE6=小心天氣
TTITLE7=天堂
TTITLE8=走得漂亮
TTITLE9=飛得起 
EXTD=YEAR: 1998
EXTT0=
EXTT1=
EXTT2=
EXTT3=
EXTT4=
EXTT5=
EXTT6=
EXTT7=
EXTT8=
EXTT9=
PLAYORDER=
